<svg width="295" height="296" viewBox="0 0 295 296" fill="none" xmlns="http://www.w3.org/2000/svg">
<g clip-path="url(#clip0_1173_3678)">
<g opacity="0.15" filter="url(#filter0_d_1173_3678)">
<path d="M43.1894 271.052C-14.3965 237.744 -14.3965 183.764 43.1894 150.457C100.775 117.149 194.161 117.149 251.747 150.457C309.333 183.764 309.333 237.744 251.747 271.052C194.161 304.359 100.775 304.359 43.1894 271.052Z" fill="#1E3D5B"/>
</g>
<path opacity="0.07" d="M137.467 258.163C119.885 248.017 119.885 231.491 137.467 221.346C155.048 211.201 183.587 211.201 201.168 221.346C218.75 231.491 218.75 248.017 201.168 258.163C183.587 268.372 155.048 268.372 137.467 258.163Z" fill="#DAE2EA"/>
<path opacity="0.07" d="M90.2008 275.454C75.4858 266.968 75.4858 253.186 90.2008 244.635C104.916 236.149 128.74 236.149 143.455 244.635C158.17 253.122 158.17 266.904 143.455 275.454C128.74 283.941 104.916 283.941 90.2008 275.454Z" fill="#DAE2EA"/>
<path d="M81.41 211.839C84.9773 209.605 82.8751 206.351 80.5182 204.182C78.2887 202.076 76.0591 201.438 73.1926 200.353C71.2815 199.652 70.1349 198.056 68.6698 196.716C67.141 195.313 65.2299 194.866 63.3189 194.228C61.0894 193.462 61.9175 192.505 63.8285 191.931C67.2047 190.91 70.963 191.484 74.2755 190.208C76.6324 189.315 78.1613 188.549 80.773 188.996C83.5759 189.443 85.7417 191.101 88.3534 191.867C90.1371 192.378 92.5577 192.888 94.2776 191.931C95.7428 191.101 95.488 189.698 95.1058 188.23C94.5962 186.125 93.7043 184.274 93.2584 182.169C93.0673 181.403 92.7488 180.51 92.2392 179.999C91.7296 179.489 90.7741 178.851 90.2008 178.468C89.309 177.957 86.7609 178.149 86.315 177.064C85.678 175.533 88.7356 175.086 89.6275 175.022C90.3919 174.958 92.5577 175.214 93.131 175.915C93.5769 176.49 93.1947 177.064 93.2584 177.702C93.4495 179.68 95.9339 179.871 97.5264 180.063C99.31 180.254 100.966 180.446 102.431 181.594C103.96 182.743 104.916 184.466 106.19 185.869C107.527 187.273 108.547 188.932 109.566 190.591C111.35 193.59 112.751 196.716 114.407 199.779C115.745 202.204 116.955 205.841 120.204 205.267C122.434 204.884 122.688 203.033 124.153 201.63C127.721 198.12 130.46 199.46 130.524 204.054C130.651 208.967 128.995 214.327 131.607 219.049C133.135 221.856 136.703 223.069 139.505 224.153C150.526 228.237 161.801 224.919 171.292 218.666C176.07 215.54 180.338 211.775 184.351 207.755C187.09 205.011 190.466 203.097 193.269 200.417C194.925 198.886 196.582 197.418 198.238 195.951C199.066 195.249 199.958 194.547 200.85 193.845C201.55 193.335 202.315 193.079 202.952 192.633C206.201 190.4 209.704 189.57 213.526 188.677C215.692 188.166 217.794 187.784 220.024 187.528C221.998 187.337 223.973 187.464 225.948 187.401C227.349 187.337 228.623 187.018 229.961 186.571C230.725 186.316 231.554 186.252 232.191 186.826C233.274 187.847 231.617 188.932 230.917 189.506C229.133 190.846 226.903 191.548 225.375 193.271C224.865 193.909 224.61 194.738 224.101 195.377C223.655 195.951 223.018 196.461 222.444 196.844C221.489 197.546 220.597 198.375 219.96 199.333C219.387 200.226 219.259 201.247 219.004 202.268C218.113 205.458 220.47 207.564 223.527 207.564C224.992 207.564 226.458 207.308 227.859 207.691C229.834 208.138 231.49 209.605 233.401 210.244C234.165 210.499 237.096 211.009 236.459 212.349C236.013 213.306 233.592 213.625 232.7 213.817C231.363 214.072 229.897 214.263 228.687 214.901C227.349 215.603 226.075 216.433 224.738 217.135C223.4 217.837 222.19 218.475 221.234 219.751C220.406 220.835 219.323 222.558 220.151 223.898C220.979 225.302 222.827 226.068 224.228 226.77C226.712 228.046 229.515 228.109 232 229.386C233.783 230.343 234.229 231.746 235.376 233.342C236.777 235.383 238.816 236.277 240.727 237.68C241.682 238.382 243.147 239.595 242.765 240.998C242.383 242.275 240.535 243.295 239.325 243.423C236.905 243.678 234.548 243.232 232.191 242.785C229.643 242.275 227.158 242.147 224.61 241.892C220.087 241.509 216.074 241.19 211.87 243.551C207.475 246.039 203.525 249.485 199.13 252.101C198.111 252.739 197.028 253.313 195.945 253.824C184.16 259.311 170.273 259.375 157.788 256.121C152.819 254.845 147.978 253.186 143.264 251.08C139.187 249.23 135.429 246.741 130.906 246.167C128.421 245.848 124.217 245.848 117.274 247.315C115.235 247.762 113.388 248.017 111.35 248.081C107.336 248.145 103.068 247.06 100.966 243.423C99.5648 241.062 100.648 239.658 97.8449 238.574C95.1058 237.489 92.4303 237.936 90.3919 235.511C88.7993 233.661 89.4364 230.47 87.2705 229.258C85.8054 228.428 83.0662 228.62 82.3655 226.833C81.9196 225.749 82.8751 225.302 81.9196 224.281C81.1552 223.452 79.2442 222.75 78.1613 222.303C74.8488 221.027 70.7719 222.048 67.5869 220.453C63.7648 218.602 68.1602 216.305 70.1986 215.348C73.6385 213.881 77.9702 214.008 81.41 211.839Z" fill="#DAE2EA"/>
<path opacity="0.7" d="M81.41 211.839C84.9773 209.605 82.8751 206.351 80.5182 204.182C78.2887 202.076 76.0591 201.438 73.1926 200.353C71.2815 199.652 70.1349 198.056 68.6698 196.716C67.141 195.313 65.2299 194.866 63.3189 194.228C61.0894 193.462 61.9175 192.505 63.8285 191.931C67.2047 190.91 70.963 191.484 74.2755 190.208C76.6324 189.315 78.1613 188.549 80.773 188.996C83.5759 189.443 85.7417 191.101 88.3534 191.867C90.1371 192.378 92.5577 192.888 94.2776 191.931C95.7428 191.101 95.488 189.698 95.1058 188.23C94.5962 186.125 93.7043 184.274 93.2584 182.169C93.0673 181.403 92.7488 180.51 92.2392 179.999C91.7296 179.489 90.7741 178.851 90.2008 178.468C89.309 177.957 86.7609 178.149 86.315 177.064C85.678 175.533 88.7356 175.086 89.6275 175.022C90.3919 174.958 92.5577 175.214 93.131 175.915C93.5769 176.49 93.1947 177.064 93.2584 177.702C93.4495 179.68 95.9339 179.871 97.5264 180.063C99.31 180.254 100.966 180.446 102.431 181.594C103.96 182.743 104.916 184.466 106.19 185.869C107.527 187.273 108.547 188.932 109.566 190.591C111.35 193.59 112.751 196.716 114.407 199.779C115.745 202.204 116.955 205.841 120.204 205.267C122.434 204.884 122.688 203.033 124.153 201.63C127.721 198.12 130.46 199.46 130.524 204.054C130.651 208.967 128.995 214.327 131.607 219.049C133.135 221.856 136.703 223.069 139.505 224.153C150.526 228.237 161.801 224.919 171.292 218.666C176.07 215.54 180.338 211.775 184.351 207.755C187.09 205.011 190.466 203.097 193.269 200.417C194.925 198.886 196.582 197.418 198.238 195.951C199.066 195.249 199.958 194.547 200.85 193.845C201.55 193.335 202.315 193.079 202.952 192.633C206.201 190.4 209.704 189.57 213.526 188.677C215.692 188.166 217.794 187.784 220.024 187.528C221.998 187.337 223.973 187.464 225.948 187.401C227.349 187.337 228.623 187.018 229.961 186.571C230.725 186.316 231.554 186.252 232.191 186.826C233.274 187.847 231.617 188.932 230.917 189.506C229.133 190.846 226.903 191.548 225.375 193.271C224.865 193.909 224.61 194.738 224.101 195.377C223.655 195.951 223.018 196.461 222.444 196.844C221.489 197.546 220.597 198.375 219.96 199.333C219.387 200.226 219.259 201.247 219.004 202.268C218.113 205.458 220.47 207.564 223.527 207.564C224.992 207.564 226.458 207.308 227.859 207.691C229.834 208.138 231.49 209.605 233.401 210.244C234.165 210.499 237.096 211.009 236.459 212.349C236.013 213.306 233.592 213.625 232.7 213.817C231.363 214.072 229.897 214.263 228.687 214.901C227.349 215.603 226.075 216.433 224.738 217.135C223.4 217.837 222.19 218.475 221.234 219.751C220.406 220.835 219.323 222.558 220.151 223.898C220.979 225.302 222.827 226.068 224.228 226.77C226.712 228.046 229.515 228.109 232 229.386C233.783 230.343 234.229 231.746 235.376 233.342C236.777 235.383 238.816 236.277 240.727 237.68C241.682 238.382 243.147 239.595 242.765 240.998C242.383 242.275 240.535 243.295 239.325 243.423C236.905 243.678 234.548 243.232 232.191 242.785C229.643 242.275 227.158 242.147 224.61 241.892C220.087 241.509 216.074 241.19 211.87 243.551C207.475 246.039 203.525 249.485 199.13 252.101C198.111 252.739 197.028 253.313 195.945 253.824C184.16 259.311 170.273 259.375 157.788 256.121C152.819 254.845 147.978 253.186 143.264 251.08C139.187 249.23 135.429 246.741 130.906 246.167C128.421 245.848 124.217 245.848 117.274 247.315C115.235 247.762 113.388 248.017 111.35 248.081C107.336 248.145 103.068 247.06 100.966 243.423C99.5648 241.062 100.648 239.658 97.8449 238.574C95.1058 237.489 92.4303 237.936 90.3919 235.511C88.7993 233.661 89.4364 230.47 87.2705 229.258C85.8054 228.428 83.0662 228.62 82.3655 226.833C81.9196 225.749 82.8751 225.302 81.9196 224.281C81.1552 223.452 79.2442 222.75 78.1613 222.303C74.8488 221.027 70.7719 222.048 67.5869 220.453C63.7648 218.602 68.1602 216.305 70.1986 215.348C73.6385 213.881 77.9702 214.008 81.41 211.839Z" fill="white"/>
<path d="M235.567 185.423C235.248 188.549 241.937 186.635 239.835 184.083C238.879 182.87 235.694 183.891 235.567 185.423Z" fill="#DAE2EA"/>
<path opacity="0.7" d="M235.567 185.423C235.248 188.549 241.937 186.635 239.835 184.083C238.879 182.87 235.694 183.891 235.567 185.423Z" fill="white"/>
<path d="M239.962 214.136C241.045 214.71 244.995 215.859 245.695 214.263C246.396 212.413 243.784 211.839 242.51 211.647C241.81 211.583 240.854 211.392 240.153 211.647C238.752 212.158 238.752 213.498 239.962 214.136Z" fill="#DAE2EA"/>
<path opacity="0.7" d="M239.962 214.136C241.045 214.71 244.995 215.859 245.695 214.263C246.396 212.413 243.784 211.839 242.51 211.647C241.81 211.583 240.854 211.392 240.153 211.647C238.752 212.158 238.752 213.498 239.962 214.136Z" fill="white"/>
<path d="M132.052 193.973C130.715 194.356 129.377 195.823 129.695 197.163C129.823 197.61 131.543 200.609 132.116 200.736C133.9 201.119 134.409 196.589 134.282 195.568C133.963 194.037 133.008 193.654 132.052 193.973Z" fill="#DAE2EA"/>
<path opacity="0.7" d="M132.052 193.973C130.715 194.356 129.377 195.823 129.695 197.163C129.823 197.61 131.543 200.609 132.116 200.736C133.9 201.119 134.409 196.589 134.282 195.568C133.963 194.037 133.008 193.654 132.052 193.973Z" fill="white"/>
<path d="M58.605 192.888C57.5857 192.76 56.1206 193.271 55.6747 193.909C55.0377 194.994 56.0569 195.313 57.0761 195.313C58.0316 195.313 59.4331 195.185 59.6879 194.1C59.879 193.335 59.3057 192.952 58.605 192.888Z" fill="#DAE2EA"/>
<path opacity="0.7" d="M58.605 192.888C57.5857 192.76 56.1206 193.271 55.6747 193.909C55.0377 194.994 56.0569 195.313 57.0761 195.313C58.0316 195.313 59.4331 195.185 59.6879 194.1C59.879 193.335 59.3057 192.952 58.605 192.888Z" fill="white"/>
<path opacity="0.2" d="M174.668 224.281C163.075 231.236 146.449 232.257 133.772 228.11C131.415 227.344 129.25 226.259 127.275 224.792C125.491 223.452 123.071 221.729 122.179 219.623C121.096 216.943 121.287 213.625 120.268 210.818C119.631 209.095 118.93 207.308 117.592 206.096C116.127 204.82 114.089 204.501 112.56 203.416C108.483 200.545 107.273 195.44 105.171 191.102C103.642 187.975 99.8196 182.169 95.8065 182.488C95.3605 184.274 99.1189 187.273 99.5011 189.443C100.266 193.845 99.4374 198.567 94.3413 199.077C89.4363 199.524 84.5951 197.801 79.8175 196.972C78.6709 196.78 72.4281 195.313 74.5303 198.184C75.4221 199.46 79.8812 200.417 81.2826 201.183C83.1936 202.268 85.2958 203.289 86.6972 205.075C89.946 209.031 88.226 212.222 83.5758 213.306C81.8559 213.753 74.0844 215.603 79.3716 217.518C82.4292 218.602 85.678 217.645 88.5445 219.687C90.4556 221.027 89.8186 221.282 90.2008 223.069C91.3474 228.748 96.6346 227.471 100.266 230.726C101.731 232.002 101.348 233.086 101.603 234.682C101.985 236.979 103.196 238.765 105.043 240.105C111.222 244.572 119.694 241.254 126.447 240.616C131.734 240.169 136.83 241.19 141.225 244.189C145.876 247.315 150.462 250.506 155.622 252.739C161.801 255.483 168.681 257.078 175.433 256.44C178.299 256.185 180.975 256.185 183.778 255.483C187.982 254.398 193.014 252.867 196.518 250.123C199.512 247.826 201.933 245.018 205.054 242.849C207.22 241.318 209.322 239.914 211.743 238.765C215.565 237.042 219.96 237.489 223.846 238.51C226.776 239.276 229.579 240.297 232.573 240.488C233.847 240.552 235.567 240.998 236.777 240.552C238.115 240.041 237.223 239.276 236.395 239.02C234.93 238.51 233.528 238.191 232.318 237.234C230.98 236.213 229.834 234.873 228.496 233.916C226.903 232.767 225.12 232.257 223.272 231.81C222.126 231.555 220.915 231.236 219.769 230.917C218.877 230.662 218.176 230.534 217.476 229.896C216.839 229.322 216.138 228.875 215.565 228.301C214.418 227.089 213.845 225.557 214.227 223.898C214.609 222.112 216.265 220.963 217.476 219.687C218.877 218.283 221.298 217.199 222.381 215.795C224.228 213.562 219.323 212.03 217.858 211.647C214.864 210.754 213.717 207.628 213.972 204.629C214.099 202.714 215.119 201.63 216.074 200.034C217.03 198.503 218.813 198.12 219.896 196.844C220.661 195.951 220.852 194.675 221.552 193.718C221.871 193.207 223.018 192.314 222.954 191.676C222.827 190.782 217.412 192.76 217.03 192.952C214.418 194.164 212.125 196.206 209.895 197.993C207.475 199.971 204.99 201.757 202.57 203.735C200.213 205.586 197.983 207.627 195.69 209.542C194.798 210.307 193.97 211.328 192.951 212.03C191.74 212.86 190.657 213.881 189.447 214.71C188.428 215.412 187.281 215.986 186.262 216.688C182.313 219.304 178.554 221.92 174.668 224.281Z" fill="#DAE2EA"/>
<path opacity="0.2" d="M134.728 230.917C129.632 229.322 124.344 227.408 121.478 222.622C120.331 220.708 119.121 218.73 118.42 216.56C117.783 214.838 117.465 212.923 116.764 211.201C115.745 208.648 114.534 206.926 111.986 205.969C109.884 205.203 106.444 204.884 105.107 202.842C104.087 201.247 103.833 200.226 101.603 200.354C99.7557 200.417 99.5646 201.183 98.9913 202.778C98.2269 204.82 97.9084 205.203 95.424 205.139C92.5575 205.011 87.6525 203.608 91.4109 207.883C92.4301 209.095 94.3411 210.69 93.4493 212.604C92.6849 214.2 87.971 214.136 89.4998 216.752C89.9457 217.454 91.7294 217.837 92.4301 218.538C93.3219 219.432 93.8315 220.516 94.3411 221.729C95.4878 224.6 98.2906 225.047 100.775 226.323C104.151 228.109 104.215 230.534 105.998 233.597C108.674 238.255 113.961 238.319 118.739 237.872C124.472 237.298 130.778 236.532 136.384 238.255C143.646 240.488 149.952 245.21 156.959 248.145C164.349 251.208 172.184 252.611 179.892 250.314C183.204 249.357 186.071 247.443 188.874 245.401C191.549 243.487 194.161 241.892 197.027 240.297C203.27 236.851 210.532 235.383 217.667 236.022C219.45 236.213 221.68 237.106 223.4 236.723C226.202 236.085 221.361 234.299 220.597 233.788C219.705 233.15 219.004 232.193 218.112 231.555C217.093 230.853 215.819 230.47 214.673 230.088C213.016 229.577 211.169 229.13 209.831 227.854C208.939 227.025 209.258 226.068 209.385 224.983C209.895 221.537 213.016 220.197 215.373 218.156C218.431 215.476 216.711 213.306 213.653 211.647C212.634 211.073 211.169 209.988 210.978 208.712C210.723 207.245 211.36 205.522 211.742 204.182C211.933 203.48 212.57 201.885 212.125 201.183C211.296 199.907 209.895 201.247 209.194 201.757C204.544 205.33 200.34 209.223 196.136 213.243C194.798 214.519 193.588 216.05 192.186 217.199C191.167 218.028 190.02 218.794 188.937 219.559C187.408 220.708 185.88 221.984 184.351 223.133C182.631 224.409 180.592 225.366 178.873 226.578C176.834 228.046 174.031 228.939 171.674 229.896C166.769 231.874 161.291 233.661 155.94 234.044C153.583 234.171 150.971 234.363 148.614 234.171C146.194 233.98 143.837 233.342 141.48 232.64C139.314 232.066 136.957 231.619 134.728 230.917Z" fill="#DAE2EA"/>
<path d="M96.8255 188.549C97.0803 190.974 96.7618 193.271 94.2138 194.356C91.0287 195.696 87.5889 193.654 84.786 192.441C81.9832 191.229 79.244 190.208 76.2501 191.229C73.9568 191.995 71.8547 192.824 69.3066 192.441C71.8547 193.526 74.339 192.952 76.9508 192.76C79.881 192.505 82.3654 193.399 84.9134 194.738C89.4362 197.099 96.4433 197.61 97.144 191.421C97.2714 189.953 96.8255 188.549 96.8255 188.549Z" fill="#FAFAFA"/>
<path d="M213.845 190.655C213.271 190.91 212.698 191.101 212.125 191.357C210.978 191.867 209.832 192.505 208.749 193.143C207.347 193.973 206.137 195.249 204.99 196.397C202.442 198.95 199.83 201.311 197.219 203.735C195.117 205.713 192.25 208.329 189.192 208.521C190.403 208.776 192.441 208.329 193.588 208.074C196.136 207.5 198.365 205.522 200.34 203.863C203.716 200.928 206.901 197.482 210.532 194.93C212.634 193.462 214.609 192.122 217.03 191.357C218.559 190.846 220.151 190.4 221.744 189.953C222.763 189.634 223.91 189.57 224.865 189.123C222.444 189.57 220.024 189.06 217.603 189.506C216.265 189.761 215.055 190.144 213.845 190.655Z" fill="#FAFAFA"/>
<path d="M216.839 202.012C216.711 203.352 216.329 204.373 216.966 205.649C217.73 207.245 219.578 208.521 221.234 208.967C223.782 209.605 226.776 209.223 228.751 211.201C227.413 210.818 226.203 210.371 224.801 210.18C223.018 209.924 221.107 210.18 219.323 209.669C217.985 209.286 216.584 208.393 216.138 207.053C215.628 205.586 216.202 204.246 216.839 202.012Z" fill="#FAFAFA"/>
<path d="M218.559 222.941C218.941 223.898 218.941 225.047 219.514 226.004C221.744 229.705 226.457 228.684 229.897 230.279C231.745 231.108 232.636 232.64 233.783 234.235C234.356 235.064 234.993 235.894 235.822 236.532C236.459 236.979 237.223 237.106 237.86 237.425C237.414 237.617 236.522 237.425 236.013 237.361C234.739 237.17 233.592 236.34 232.636 235.447C231.808 234.618 231.235 233.533 230.28 232.767C229.515 232.129 228.623 231.555 227.731 231.236C225.311 230.279 222.381 229.896 220.215 228.301C219.387 227.663 218.559 226.578 218.431 225.493C218.367 224.664 218.813 223.579 218.559 222.941Z" fill="#FAFAFA"/>
<path d="M225.12 240.424C216.329 238.765 210.723 241.509 203.907 246.231C203.907 246.231 207.984 241.445 213.526 239.722C219.132 238.063 225.12 240.424 225.12 240.424Z" fill="#FAFAFA"/>
<path d="M145.621 250.952C140.461 248.783 136.511 245.401 131.734 244.572C126.892 243.678 119.376 245.784 117.656 245.975C117.656 245.975 120.905 244.891 123.898 243.806C126.892 242.657 131.479 241.828 135.619 244.125C139.76 246.422 142.372 249.293 145.621 250.952Z" fill="#FAFAFA"/>
<path d="M138.104 225.557C137.467 225.366 136.766 225.111 136.129 224.792C134.091 223.834 131.989 222.239 130.778 220.325C129.568 218.411 128.995 216.241 128.867 214.008C128.74 211.201 129.504 208.457 129.696 205.713C129.759 205.011 129.823 204.246 129.759 203.544C129.759 203.225 129.696 202.906 129.568 202.587C129.441 202.204 129.25 201.757 128.995 201.438C128.867 201.247 128.676 201.119 128.485 200.992C128.358 200.928 128.103 200.928 127.976 200.8C128.676 201.247 128.931 202.268 128.867 203.033C128.804 203.608 128.74 204.182 128.676 204.692C128.422 205.969 128.103 207.245 127.912 208.521C127.593 210.563 127.02 212.604 126.765 214.71C126.447 217.262 126.765 219.432 128.358 221.537C129.313 222.814 130.906 223.834 132.371 224.472C134.091 225.174 136.257 225.812 138.104 225.557Z" fill="#FAFAFA"/>
<path d="M72.237 220.261C72.237 220.261 72.3007 220.261 72.237 220.261C75.0399 220.453 78.1612 220.134 80.773 221.346C81.7285 221.793 82.8751 222.239 83.3847 223.26C83.8306 224.09 83.2573 225.047 83.8306 225.812C84.7862 227.089 86.952 226.833 88.2897 227.471C89.2452 227.918 90.2645 228.556 90.9015 229.386C91.4111 230.024 91.4111 230.853 91.6659 231.555C92.494 229.832 90.4556 228.046 89.1815 227.216C87.7801 226.195 85.3595 225.876 85.041 223.962C84.8499 222.941 84.4677 221.729 83.8943 220.899C83.2573 220.006 81.9833 219.751 81.0278 219.496C78.6072 218.985 76.3776 218.921 73.8933 219.24C72.3007 219.496 70.5171 219.878 68.9883 219.176C69.8164 220.006 71.0904 220.197 72.237 220.261Z" fill="#FAFAFA"/>
<path opacity="0.1" d="M146.321 249.293C132.371 241.318 132.371 228.365 146.321 220.389C160.272 212.413 182.949 212.413 196.964 220.389C210.914 228.365 210.914 241.318 196.964 249.293C182.949 257.269 160.272 257.269 146.321 249.293Z" fill="black"/>
<path d="M206.45 70.7359C206.45 57.6555 194.474 45.2132 189.251 40.2363C186.448 37.6202 184.792 36.344 183.963 34.6851C183.263 33.2813 183.39 32.4518 183.39 29.7081H171.733H160.075C160.075 32.4518 160.203 33.2813 159.502 34.6851C158.738 36.344 157.018 37.6202 154.215 40.2363C148.991 45.1494 137.016 57.6555 137.016 70.7359C137.016 71.9483 137.207 73.0968 137.525 74.2453C137.143 75.3938 137.016 76.6062 137.016 77.8185V83.4335C137.016 84.5182 137.143 85.6667 137.462 86.7515C137.079 88.0276 136.952 89.2399 137.016 90.5161V97.5348C137.016 99.8957 137.716 102.193 139.054 104.107L140.583 106.34C141.921 108.254 142.621 110.551 142.621 112.912C142.621 114.763 142.175 116.613 141.284 118.272L138.353 123.887C137.462 125.546 137.016 127.396 137.016 129.247V235.485C137.016 240.59 140.392 245.758 147.144 249.65C160.712 257.499 182.626 257.499 196.194 249.65C202.946 245.758 206.322 240.59 206.322 235.485V129.311C206.322 127.46 205.877 125.61 204.985 123.951L202.055 118.336C201.163 116.677 200.717 114.826 200.717 112.976C200.717 110.615 201.418 108.318 202.755 106.404L204.284 104.171C205.622 102.257 206.322 99.9595 206.322 97.5986V90.5799C206.386 89.3037 206.195 88.0914 205.877 86.8153C206.195 85.7305 206.322 84.582 206.322 83.4973V77.8823C206.322 76.67 206.131 75.5215 205.813 74.3091C206.259 73.0968 206.45 71.9483 206.45 70.7359Z" fill="#DAE2EA"/>
<path opacity="0.5" d="M206.45 70.7359C206.45 57.6555 194.474 45.2132 189.251 40.2363C186.448 37.6202 184.792 36.344 183.963 34.6851C183.263 33.2813 183.39 32.4518 183.39 29.7081H171.733H160.075C160.075 32.4518 160.203 33.2813 159.502 34.6851C158.738 36.344 157.018 37.6202 154.215 40.2363C148.991 45.1494 137.016 57.6555 137.016 70.7359C137.016 71.9483 137.207 73.0968 137.525 74.2453C137.143 75.3938 137.016 76.6062 137.016 77.8185V83.4335C137.016 84.5182 137.143 85.6667 137.462 86.7515C137.079 88.0276 136.952 89.2399 137.016 90.5161V97.5348C137.016 99.8957 137.716 102.193 139.054 104.107L140.583 106.34C141.921 108.254 142.621 110.551 142.621 112.912C142.621 114.763 142.175 116.613 141.284 118.272L138.353 123.887C137.462 125.546 137.016 127.396 137.016 129.247V235.485C137.016 240.59 140.392 245.758 147.144 249.65C160.712 257.499 182.626 257.499 196.194 249.65C202.946 245.758 206.322 240.59 206.322 235.485V129.311C206.322 127.46 205.877 125.61 204.985 123.951L202.055 118.336C201.163 116.677 200.717 114.826 200.717 112.976C200.717 110.615 201.418 108.318 202.755 106.404L204.284 104.171C205.622 102.257 206.322 99.9595 206.322 97.5986V90.5799C206.386 89.3037 206.195 88.0914 205.877 86.8153C206.195 85.7305 206.322 84.582 206.322 83.4973V77.8823C206.322 76.67 206.131 75.5215 205.813 74.3091C206.259 73.0968 206.45 71.9483 206.45 70.7359Z" fill="#0CAAED"/>
<path d="M137.079 83.4973C137.079 88.6018 140.455 93.7702 147.208 97.6624C160.776 105.511 182.689 105.511 196.257 97.6624C203.01 93.7702 206.386 88.6018 206.386 83.4973V77.8185C206.386 82.923 203.01 88.0914 196.257 91.9836C182.689 99.8319 160.776 99.8319 147.208 91.9836C140.455 88.0914 137.079 82.9868 137.079 77.8185V83.4973Z" fill="#DAE2EA"/>
<path d="M137.079 97.7263C137.079 102.831 140.455 107.999 147.208 111.891C160.776 119.74 182.689 119.74 196.257 111.891C203.01 107.999 206.386 102.831 206.386 97.7263V90.0695C206.386 95.174 203.01 100.342 196.257 104.235C182.689 112.083 160.776 112.083 147.208 104.235C140.455 100.342 137.079 95.174 137.079 90.0695V97.7263Z" fill="#DAE2EA"/>
<path d="M206.386 70.7359C206.386 71.3102 206.322 71.9483 206.259 72.5225C206.259 72.6501 206.195 72.7778 206.195 72.9054C206.131 73.352 206.004 73.7987 205.877 74.2453C204.666 78.1375 201.481 81.9021 196.258 84.9011C182.689 92.7493 160.776 92.7493 147.208 84.9011C141.984 81.9021 138.799 78.1375 137.589 74.2453C137.589 74.1815 137.589 74.1177 137.525 74.0539C137.462 73.9263 137.462 73.7349 137.398 73.6073C137.143 72.6501 137.016 71.693 137.016 70.7359C137.016 57.6555 148.991 45.2132 154.215 40.2363C157.018 37.6202 158.674 36.344 159.502 34.6851C160.203 33.2175 160.075 32.4518 160.075 29.7081H183.326C183.326 32.4518 183.199 33.2813 183.9 34.6851C184.664 36.344 186.384 37.6202 189.187 40.2363C194.41 45.2132 206.386 57.6555 206.386 70.7359Z" fill="#DAE2EA"/>
<path d="M194.092 136.266C181.734 143.412 161.668 143.412 149.31 136.266C140.838 131.352 138.162 124.398 141.284 118.208V118.272L138.353 123.887C137.462 125.546 137.016 127.396 137.016 129.247V235.485C137.016 240.59 140.392 245.758 147.144 249.65C160.712 257.499 182.626 257.499 196.194 249.65C202.946 245.758 206.322 240.59 206.322 235.485V129.311C206.322 127.46 205.877 125.61 204.985 123.951L202.054 118.336V118.272C205.24 124.461 202.564 131.416 194.092 136.266Z" fill="#DAE2EA"/>
<g opacity="0.7">
<path opacity="0.7" d="M137.079 83.4973C137.079 88.6018 140.455 93.7702 147.208 97.6624C160.776 105.511 182.689 105.511 196.257 97.6624C203.01 93.7702 206.386 88.6018 206.386 83.4973V77.8185C206.386 82.923 203.01 88.0914 196.257 91.9836C182.689 99.8319 160.776 99.8319 147.208 91.9836C140.455 88.0914 137.079 82.9868 137.079 77.8185V83.4973Z" fill="#0CAAED"/>
<path opacity="0.7" d="M137.079 97.7263C137.079 102.831 140.455 107.999 147.208 111.891C160.776 119.74 182.689 119.74 196.257 111.891C203.01 107.999 206.386 102.831 206.386 97.7263V90.0695C206.386 95.174 203.01 100.342 196.257 104.235C182.689 112.083 160.776 112.083 147.208 104.235C140.455 100.342 137.079 95.174 137.079 90.0695V97.7263Z" fill="#0CAAED"/>
<path opacity="0.7" d="M206.386 70.7359C206.386 71.3102 206.322 71.9483 206.259 72.5225C206.259 72.6501 206.195 72.7778 206.195 72.9054C206.131 73.352 206.004 73.7987 205.877 74.2453C204.666 78.1375 201.481 81.9021 196.258 84.9011C182.689 92.7493 160.776 92.7493 147.208 84.9011C141.984 81.9021 138.799 78.1375 137.589 74.2453C137.589 74.1815 137.589 74.1177 137.525 74.0539C137.462 73.9263 137.462 73.7349 137.398 73.6073C137.143 72.6501 137.016 71.693 137.016 70.7359C137.016 57.6555 148.991 45.2132 154.215 40.2363C157.018 37.6202 158.674 36.344 159.502 34.6851C160.203 33.2175 160.075 32.4518 160.075 29.7081H183.326C183.326 32.4518 183.199 33.2813 183.9 34.6851C184.664 36.344 186.384 37.6202 189.187 40.2363C194.41 45.2132 206.386 57.6555 206.386 70.7359Z" fill="#0CAAED"/>
<path opacity="0.7" d="M194.092 136.266C181.734 143.412 161.668 143.412 149.31 136.266C140.838 131.352 138.162 124.398 141.284 118.208V118.272L138.353 123.887C137.462 125.546 137.016 127.396 137.016 129.247V235.485C137.016 240.59 140.392 245.758 147.144 249.65C160.712 257.499 182.626 257.499 196.194 249.65C202.946 245.758 206.322 240.59 206.322 235.485V129.311C206.322 127.46 205.877 125.61 204.985 123.951L202.054 118.336V118.272C205.24 124.461 202.564 131.416 194.092 136.266Z" fill="#0CAAED"/>
</g>
<path d="M202.246 75.3937C202.5 76.2232 202.628 76.9889 202.628 77.8184V83.4972C202.628 84.2629 202.5 85.0286 202.309 85.7943L201.991 86.8152L202.309 87.8361C202.564 88.6656 202.628 89.5589 202.628 90.3884L202.501 94.2806H202.692V97.5347C202.692 99.1299 202.246 100.661 201.354 101.937L199.825 104.171C198.041 106.723 197.15 109.722 197.15 112.848C197.15 115.337 197.723 117.761 198.87 119.995L201.8 125.61C202.373 126.694 202.692 127.971 202.692 129.247V235.485C202.692 239.441 199.761 243.333 194.41 246.396C188.423 249.842 180.396 251.756 171.797 251.756C163.197 251.756 155.171 249.842 149.183 246.396C143.832 243.333 140.901 239.441 140.901 235.485V129.311C140.901 128.034 141.22 126.822 141.793 125.674L144.724 120.059C145.87 117.889 146.443 115.401 146.443 112.912C146.443 109.786 145.488 106.787 143.768 104.234L142.239 102.001C141.347 100.725 140.901 99.1299 140.901 97.5985V94.3444H141.029L140.901 90.3884C140.838 89.4951 140.965 88.6656 141.22 87.8361L141.538 86.8152L141.22 85.7943C141.029 85.0286 140.901 84.2629 140.901 83.4972V77.8822C140.901 77.0527 141.029 76.2232 141.284 75.4575L141.602 74.3728L141.284 73.2881C141.029 72.4586 140.901 71.6929 140.901 70.8634C140.901 66.2694 142.621 61.6753 145.106 57.464C145.106 57.464 145.106 57.4002 145.169 57.4002C145.233 57.2726 145.361 57.0812 145.424 56.9536C145.488 56.8897 145.488 56.8259 145.552 56.7621C146.889 54.6565 149.055 52.7423 151.985 51.0195C162.942 44.7026 180.651 44.7026 191.608 51.0195C194.538 52.6785 196.64 54.6565 198.041 56.7621C198.105 56.8259 198.105 56.8897 198.169 56.9536C198.233 57.0812 198.36 57.2726 198.424 57.4002C198.424 57.4002 198.424 57.464 198.487 57.464C200.972 61.6753 202.692 66.2694 202.692 70.8634C202.692 71.6929 202.564 72.4586 202.309 73.2881L201.991 74.3728L202.246 75.3937Z" fill="#DAE2EA"/>
<path opacity="0.85" d="M202.246 75.3937C202.5 76.2232 202.628 76.9889 202.628 77.8184V83.4972C202.628 84.2629 202.5 85.0286 202.309 85.7943L201.991 86.8152L202.309 87.8361C202.564 88.6656 202.628 89.5589 202.628 90.3884L202.501 94.2806H202.692V97.5347C202.692 99.1299 202.246 100.661 201.354 101.937L199.825 104.171C198.041 106.723 197.15 109.722 197.15 112.848C197.15 115.337 197.723 117.761 198.87 119.995L201.8 125.61C202.373 126.694 202.692 127.971 202.692 129.247V235.485C202.692 239.441 199.761 243.333 194.41 246.396C188.423 249.842 180.396 251.756 171.797 251.756C163.197 251.756 155.171 249.842 149.183 246.396C143.832 243.333 140.901 239.441 140.901 235.485V129.311C140.901 128.034 141.22 126.822 141.793 125.674L144.724 120.059C145.87 117.889 146.443 115.401 146.443 112.912C146.443 109.786 145.488 106.787 143.768 104.234L142.239 102.001C141.347 100.725 140.901 99.1299 140.901 97.5985V94.3444H141.029L140.901 90.3884C140.838 89.4951 140.965 88.6656 141.22 87.8361L141.538 86.8152L141.22 85.7943C141.029 85.0286 140.901 84.2629 140.901 83.4972V77.8822C140.901 77.0527 141.029 76.2232 141.284 75.4575L141.602 74.3728L141.284 73.2881C141.029 72.4586 140.901 71.6929 140.901 70.8634C140.901 66.2694 142.621 61.6753 145.106 57.464C145.106 57.464 145.106 57.4002 145.169 57.4002C145.233 57.2726 145.361 57.0812 145.424 56.9536C145.488 56.8897 145.488 56.8259 145.552 56.7621C146.889 54.6565 149.055 52.7423 151.985 51.0195C162.942 44.7026 180.651 44.7026 191.608 51.0195C194.538 52.6785 196.64 54.6565 198.041 56.7621C198.105 56.8259 198.105 56.8897 198.169 56.9536C198.233 57.0812 198.36 57.2726 198.424 57.4002C198.424 57.4002 198.424 57.464 198.487 57.464C200.972 61.6753 202.692 66.2694 202.692 70.8634C202.692 71.6929 202.564 72.4586 202.309 73.2881L201.991 74.3728L202.246 75.3937Z" fill="#0CAAED"/>
<path opacity="0.7" d="M191.544 73.7986C180.587 80.1155 162.878 80.1155 151.922 73.7986C144.214 69.3321 141.921 62.9515 145.042 57.3365C145.042 57.3365 145.042 57.2726 145.106 57.2726C145.169 57.145 145.297 56.9536 145.36 56.826C145.424 56.7622 145.424 56.6984 145.488 56.6346C146.826 54.5289 148.991 52.6147 151.922 50.892C162.878 44.5751 180.587 44.5751 191.544 50.892C194.474 52.5509 196.576 54.5289 197.978 56.6346C198.041 56.6984 198.041 56.7622 198.105 56.826C198.169 56.9536 198.296 57.145 198.36 57.2726C198.36 57.2726 198.36 57.3365 198.423 57.3365C201.545 62.9515 199.252 69.3321 191.544 73.7986Z" fill="#0CAAED"/>
<path d="M202.564 92.6855C200.972 94.4721 198.87 96.1311 196.258 97.6624C182.69 105.511 160.776 105.511 147.208 97.6624C144.596 96.1311 142.494 94.4721 140.902 92.6855L140.965 94.3445H140.838V97.5986C140.838 98.2367 140.902 98.8748 141.093 99.449C142.685 101.172 144.724 102.831 147.272 104.298C160.84 112.147 182.753 112.147 196.322 104.298C198.87 102.831 200.908 101.236 202.501 99.449C202.628 98.8748 202.755 98.2367 202.755 97.5986V94.3445H202.564V92.6855ZM198.806 120.059C197.659 117.889 197.086 115.401 197.086 112.912C197.086 112.402 197.15 111.891 197.15 111.381C196.831 111.572 196.576 111.764 196.258 111.891C182.69 119.74 160.776 119.74 147.208 111.891C146.889 111.7 146.571 111.509 146.316 111.317C146.38 111.828 146.38 112.338 146.38 112.848C146.38 115.337 145.807 117.762 144.66 119.995L141.73 125.61C141.411 126.248 141.156 126.95 141.029 127.652C142.367 130.778 145.17 133.777 149.374 136.202C161.732 143.348 181.798 143.348 194.156 136.202C198.424 133.777 201.163 130.778 202.501 127.652C202.373 126.95 202.118 126.248 201.8 125.61L198.806 120.059ZM196.258 84.9011C182.69 92.7493 160.776 92.7493 147.208 84.9011C144.533 83.3697 142.43 81.6469 140.838 79.7965V83.4335C140.838 84.1992 140.965 84.9649 141.156 85.7305L141.475 86.7515L141.284 87.3895C142.813 89.0485 144.787 90.5799 147.208 91.9836C160.776 99.8319 182.69 99.8319 196.258 91.9836C198.679 90.5799 200.653 89.0485 202.182 87.3895L201.991 86.7515L202.309 85.7305C202.501 84.9649 202.628 84.1992 202.628 83.4335V79.7965C201.035 81.7107 198.933 83.4335 196.258 84.9011Z" fill="#DAE2EA"/>
<path opacity="0.7" d="M202.564 92.6855C200.972 94.4721 198.87 96.1311 196.258 97.6624C182.69 105.511 160.776 105.511 147.208 97.6624C144.596 96.1311 142.494 94.4721 140.902 92.6855L140.965 94.3445H140.838V97.5986C140.838 98.2367 140.902 98.8748 141.093 99.449C142.685 101.172 144.724 102.831 147.272 104.298C160.84 112.147 182.753 112.147 196.322 104.298C198.87 102.831 200.908 101.236 202.501 99.449C202.628 98.8748 202.755 98.2367 202.755 97.5986V94.3445H202.564V92.6855ZM198.806 120.059C197.659 117.889 197.086 115.401 197.086 112.912C197.086 112.402 197.15 111.891 197.15 111.381C196.831 111.572 196.576 111.764 196.258 111.891C182.69 119.74 160.776 119.74 147.208 111.891C146.889 111.7 146.571 111.509 146.316 111.317C146.38 111.828 146.38 112.338 146.38 112.848C146.38 115.337 145.807 117.762 144.66 119.995L141.73 125.61C141.411 126.248 141.156 126.95 141.029 127.652C142.367 130.778 145.17 133.777 149.374 136.202C161.732 143.348 181.798 143.348 194.156 136.202C198.424 133.777 201.163 130.778 202.501 127.652C202.373 126.95 202.118 126.248 201.8 125.61L198.806 120.059ZM196.258 84.9011C182.69 92.7493 160.776 92.7493 147.208 84.9011C144.533 83.3697 142.43 81.6469 140.838 79.7965V83.4335C140.838 84.1992 140.965 84.9649 141.156 85.7305L141.475 86.7515L141.284 87.3895C142.813 89.0485 144.787 90.5799 147.208 91.9836C160.776 99.8319 182.69 99.8319 196.258 91.9836C198.679 90.5799 200.653 89.0485 202.182 87.3895L201.991 86.7515L202.309 85.7305C202.501 84.9649 202.628 84.1992 202.628 83.4335V79.7965C201.035 81.7107 198.933 83.4335 196.258 84.9011Z" fill="#0CAAED"/>
<path d="M191.862 222.086C180.715 215.897 162.687 215.897 151.603 222.086C146.061 225.149 143.258 229.168 143.258 233.252V234.656C143.258 238.165 145.934 241.547 150.902 244.291C156.444 247.353 163.834 249.012 171.733 249.012C179.695 249.012 187.085 247.353 192.627 244.291C197.532 241.547 200.271 238.165 200.271 234.656V233.252C200.207 229.168 197.468 225.149 191.862 222.086Z" fill="#DAE2EA"/>
<path opacity="0.75" d="M191.862 222.086C180.715 215.897 162.687 215.897 151.603 222.086C146.061 225.149 143.258 229.168 143.258 233.252V234.656C143.258 238.165 145.934 241.547 150.902 244.291C156.444 247.353 163.834 249.012 171.733 249.012C179.695 249.012 187.085 247.353 192.627 244.291C197.532 241.547 200.271 238.165 200.271 234.656V233.252C200.207 229.168 197.468 225.149 191.862 222.086Z" fill="#0CAAED"/>
<g opacity="0.1">
<path opacity="0.1" d="M154.215 235.23V129.055C154.215 127.205 154.661 125.355 155.553 123.696L158.483 118.081C159.375 116.422 159.821 114.571 159.821 112.721C159.821 110.36 159.12 108.063 157.782 106.149L156.253 103.916C154.916 102.001 154.215 99.7043 154.215 97.3434V90.3247C154.151 89.0485 154.342 87.8362 154.661 86.5601C154.342 85.4754 154.215 84.3268 154.215 83.2421V77.6271C154.215 76.4148 154.406 75.2663 154.725 74.0539C154.342 72.9054 154.215 71.6931 154.215 70.5446C154.215 57.4641 163.133 45.0218 168.357 40.0449C171.159 37.4288 172.816 36.1527 173.644 34.4937C174.281 33.0899 174.217 32.3242 174.217 29.772H171.733H160.075C160.075 32.5157 160.203 33.3452 159.502 34.7489C158.738 36.4079 157.018 37.684 154.215 40.3001C148.991 45.2132 137.016 57.7194 137.016 70.7998C137.016 72.0121 137.207 73.1606 137.525 74.3092C137.143 75.4577 137.016 76.67 137.016 77.8823V83.4973C137.016 84.5821 137.143 85.7306 137.462 86.8153C137.079 88.0914 136.952 89.3038 137.016 90.5799V97.5987C137.016 99.9595 137.716 102.257 139.054 104.171L140.583 106.404C141.921 108.318 142.621 110.615 142.621 112.976C142.621 114.827 142.175 116.677 141.284 118.336L138.353 123.951C137.462 125.61 137.016 127.46 137.016 129.311V235.485C137.016 240.59 140.392 245.758 147.144 249.65C156.381 255.01 169.44 256.669 181.161 254.755C174.982 253.925 169.121 252.139 164.28 249.395C157.591 245.503 154.215 240.398 154.215 235.23Z" fill="black"/>
<path opacity="0.1" d="M196.257 151.452C182.689 159.3 160.776 159.3 147.208 151.452C140.455 147.559 137.079 142.391 137.079 137.286V199.371C137.079 204.475 140.455 209.643 147.208 213.536C160.776 221.384 182.689 221.384 196.257 213.536C203.01 209.643 206.386 204.475 206.386 199.371V137.223C206.45 142.391 203.01 147.496 196.257 151.452Z" fill="black"/>
</g>
<path d="M182.817 20.8389C176.701 17.3296 166.828 17.3296 160.712 20.8389C157.655 22.6255 156.126 24.9226 156.126 27.2196C156.126 27.6663 156.126 29.3253 156.126 29.7719C156.126 32.0689 157.655 34.4298 160.712 36.1526C166.828 39.662 176.701 39.662 182.817 36.1526C185.874 34.366 187.403 32.0689 187.403 29.7719C187.403 29.3253 187.403 27.6663 187.403 27.2834C187.403 24.9226 185.874 22.6255 182.817 20.8389Z" fill="#F2F2F2"/>
<path opacity="0.5" d="M182.817 20.8389C176.701 17.3296 166.828 17.3296 160.712 20.8389C157.655 22.6255 156.126 24.9226 156.126 27.2196C156.126 27.6663 156.126 29.3253 156.126 29.7719C156.126 32.0689 157.655 34.4298 160.712 36.1526C166.828 39.662 176.701 39.662 182.817 36.1526C185.874 34.366 187.403 32.0689 187.403 29.7719C187.403 29.3253 187.403 27.6663 187.403 27.2834C187.403 24.9226 185.874 22.6255 182.817 20.8389Z" fill="#0CAAED"/>
<path d="M160.649 33.6641C154.534 30.1547 154.534 24.4121 160.649 20.8389C166.764 17.3296 176.638 17.3296 182.753 20.8389C188.869 24.3483 188.869 30.0909 182.753 33.6641C176.702 37.1735 166.764 37.1735 160.649 33.6641Z" fill="#F2F2F2"/>
<path opacity="0.5" d="M160.649 33.6641C154.534 30.1547 154.534 24.4121 160.649 20.8389C166.764 17.3296 176.638 17.3296 182.753 20.8389C188.869 24.3483 188.869 30.0909 182.753 33.6641C176.702 37.1735 166.764 37.1735 160.649 33.6641Z" fill="#0CAAED"/>
<path opacity="0.1" d="M160.649 33.6641C154.534 30.1547 154.534 24.4121 160.649 20.8389C166.764 17.3296 176.638 17.3296 182.753 20.8389C188.869 24.3483 188.869 30.0909 182.753 33.6641C176.702 37.1735 166.764 37.1735 160.649 33.6641Z" fill="#858585"/>
<path d="M182.498 17.5848C176.574 14.1392 166.955 14.1392 160.967 17.5848C158.037 19.3076 156.508 21.5408 156.508 23.7741C156.508 24.2207 156.508 25.8159 156.508 26.2625C156.508 28.4958 157.973 30.7928 160.967 32.4518C166.892 35.8974 176.51 35.8974 182.498 32.4518C185.492 30.729 186.957 28.4958 186.957 26.2625C186.957 25.8797 186.957 24.2207 186.957 23.8379C186.957 21.5408 185.492 19.3076 182.498 17.5848Z" fill="#F2F2F2"/>
<path opacity="0.3" d="M182.498 17.5848C176.574 14.1392 166.955 14.1392 160.967 17.5848C158.037 19.3076 156.508 21.5408 156.508 23.7741C156.508 24.2207 156.508 25.8159 156.508 26.2625C156.508 28.4958 157.973 30.7928 160.967 32.4518C166.892 35.8974 176.51 35.8974 182.498 32.4518C185.492 30.729 186.957 28.4958 186.957 26.2625C186.957 25.8797 186.957 24.2207 186.957 23.8379C186.957 21.5408 185.492 19.3076 182.498 17.5848Z" fill="#858585"/>
<path d="M160.968 30.0271C155.043 26.5816 155.043 21.0304 160.968 17.5848C166.892 14.1392 176.511 14.1392 182.499 17.5848C188.423 21.0304 188.423 26.5816 182.499 30.0271C176.574 33.4089 166.892 33.4089 160.968 30.0271Z" fill="#F2F2F2"/>
<path opacity="0.5" d="M160.968 30.0271C155.043 26.5816 155.043 21.0304 160.968 17.5848C166.892 14.1392 176.511 14.1392 182.499 17.5848C188.423 21.0304 188.423 26.5816 182.499 30.0271C176.574 33.4089 166.892 33.4089 160.968 30.0271Z" fill="#858585"/>
<path d="M182.817 4.63203C176.701 1.12266 166.828 1.12266 160.712 4.63203C157.655 6.41862 156.126 8.71567 156.126 11.0127C156.126 11.4594 156.126 22.6256 156.126 23.0722C156.126 25.3693 157.655 27.7301 160.712 29.4529C166.828 32.9623 176.701 32.9623 182.817 29.4529C185.874 27.6663 187.403 25.3693 187.403 23.0722C187.403 22.6256 187.403 11.4594 187.403 11.0127C187.403 8.71567 185.874 6.35482 182.817 4.63203Z" fill="#F2F2F2"/>
<path opacity="0.2" d="M182.817 4.63203C176.701 1.12266 166.828 1.12266 160.712 4.63203C157.655 6.41862 156.126 8.71567 156.126 11.0127C156.126 11.4594 156.126 22.6256 156.126 23.0722C156.126 25.3693 157.655 27.7301 160.712 29.4529C166.828 32.9623 176.701 32.9623 182.817 29.4529C185.874 27.6663 187.403 25.3693 187.403 23.0722C187.403 22.6256 187.403 11.4594 187.403 11.0127C187.403 8.71567 185.874 6.35482 182.817 4.63203Z" fill="#858585"/>
<path opacity="0.5" d="M161.859 16.7553C156.381 13.565 156.381 8.46042 161.859 5.27008C167.338 2.07973 176.192 2.07973 181.67 5.27008C187.149 8.46042 187.149 13.565 181.67 16.7553C176.192 19.8818 167.274 19.8818 161.859 16.7553Z" fill="#F2F2F2"/>
<g opacity="0.15">
<path opacity="0.15" d="M172.243 22.2428V29.8358C172.243 30.0273 172.052 30.2187 171.861 30.2187C171.797 30.2187 171.733 30.2187 171.606 30.2187C171.415 30.2187 171.224 30.0273 171.224 29.8358V22.2428C171.224 22.0514 171.415 21.86 171.606 21.86C171.67 21.86 171.733 21.86 171.861 21.86C172.052 21.86 172.243 22.0514 172.243 22.2428Z" fill="#858585"/>
<path opacity="0.15" d="M169.695 22.1789V29.7719C169.695 29.9634 169.504 30.1548 169.313 30.091C169.249 30.091 169.185 30.091 169.121 30.091C168.93 30.091 168.739 29.8996 168.739 29.7081V22.1151C168.739 21.9237 168.93 21.7323 169.121 21.7961C169.185 21.7961 169.249 21.7961 169.313 21.7961C169.504 21.7961 169.695 21.9875 169.695 22.1789Z" fill="#858585"/>
<path opacity="0.15" d="M167.083 21.8599V29.453C167.083 29.6444 166.892 29.772 166.701 29.772C166.637 29.772 166.573 29.772 166.573 29.7082C166.382 29.6444 166.191 29.453 166.191 29.2615V21.6685C166.191 21.4771 166.382 21.3495 166.573 21.3495C166.637 21.3495 166.701 21.3495 166.701 21.4133C166.892 21.4133 167.083 21.6685 167.083 21.8599Z" fill="#858585"/>
<path opacity="0.15" d="M164.535 21.2219V28.8149C164.535 29.0063 164.344 29.1339 164.153 29.0701C164.089 29.0701 164.089 29.0701 164.025 29.0063C163.834 28.9425 163.643 28.6873 163.643 28.4959V20.9666C163.643 20.7752 163.834 20.6476 164.025 20.7114C164.089 20.7114 164.089 20.7114 164.153 20.7752C164.344 20.839 164.535 21.0305 164.535 21.2219Z" fill="#858585"/>
<path opacity="0.15" d="M162.051 20.3286V27.9216C162.051 28.1131 161.923 28.2407 161.732 28.1131C161.668 28.1131 161.668 28.0493 161.605 28.0493C161.414 27.9855 161.286 27.7302 161.286 27.475V19.9458C161.286 19.7544 161.414 19.6268 161.605 19.7544C161.668 19.7544 161.668 19.8182 161.732 19.8182C161.923 19.882 162.051 20.1372 162.051 20.3286Z" fill="#858585"/>
<path opacity="0.15" d="M159.821 19.0524V26.6454C159.821 26.8368 159.694 26.9007 159.503 26.8368C159.439 26.773 159.375 26.773 159.375 26.7092C159.184 26.5816 159.057 26.3264 159.057 26.0712V18.4143C159.057 18.2229 159.184 18.1591 159.375 18.2867C159.439 18.3505 159.503 18.3505 159.503 18.4143C159.63 18.6058 159.821 18.861 159.821 19.0524Z" fill="#858585"/>
<path opacity="0.15" d="M157.719 17.2658V24.8589C157.719 25.0503 157.591 25.1141 157.464 24.9227C157.4 24.7951 157.273 24.6674 157.209 24.5398C157.082 24.3484 157.018 24.0294 157.018 23.838V16.2449C157.018 16.0535 157.082 15.9897 157.209 16.1811C157.273 16.3087 157.4 16.4364 157.464 16.564C157.591 16.7554 157.719 17.0106 157.719 17.2658Z" fill="#858585"/>
<path opacity="0.15" d="M173.835 22.1789V29.7719C173.835 29.9634 174.026 30.1548 174.217 30.091C174.281 30.091 174.345 30.091 174.408 30.091C174.599 30.091 174.79 29.8996 174.79 29.7081V22.1151C174.79 21.9237 174.599 21.7323 174.408 21.7961C174.345 21.7961 174.281 21.7961 174.217 21.7961C173.962 21.7961 173.835 21.9875 173.835 22.1789Z" fill="#858585"/>
<path opacity="0.15" d="M176.383 21.8599V29.453C176.383 29.6444 176.574 29.772 176.765 29.772C176.829 29.772 176.893 29.772 176.893 29.7082C177.084 29.6444 177.275 29.453 177.275 29.2615V21.6685C177.275 21.4771 177.084 21.3495 176.893 21.3495C176.829 21.3495 176.765 21.3495 176.765 21.4133C176.574 21.4133 176.383 21.6685 176.383 21.8599Z" fill="#858585"/>
<path opacity="0.15" d="M178.931 21.2219V28.8149C178.931 29.0063 179.122 29.1339 179.313 29.0701C179.377 29.0701 179.377 29.0701 179.441 29.0063C179.632 28.9425 179.823 28.6873 179.823 28.4959V20.9666C179.823 20.7752 179.632 20.6476 179.441 20.7114C179.377 20.7114 179.377 20.7114 179.313 20.7752C179.122 20.839 178.931 21.0305 178.931 21.2219Z" fill="#858585"/>
<path opacity="0.15" d="M181.416 20.3286V27.9216C181.416 28.1131 181.543 28.2407 181.734 28.1131C181.798 28.1131 181.798 28.0493 181.861 28.0493C182.053 27.9855 182.18 27.7302 182.18 27.475V19.9458C182.18 19.7544 182.053 19.6268 181.861 19.7544C181.798 19.7544 181.798 19.8182 181.734 19.8182C181.543 19.882 181.416 20.1372 181.416 20.3286Z" fill="#858585"/>
<path opacity="0.15" d="M183.709 19.0524V26.6454C183.709 26.8368 183.836 26.9007 184.027 26.8368C184.091 26.773 184.155 26.773 184.155 26.7092C184.346 26.5816 184.473 26.3264 184.473 26.0712V18.4143C184.473 18.2229 184.346 18.1591 184.155 18.2867C184.091 18.3505 184.027 18.3505 184.027 18.4143C183.836 18.6058 183.709 18.861 183.709 19.0524Z" fill="#858585"/>
<path opacity="0.15" d="M185.747 17.2658V24.8589C185.747 25.0503 185.874 25.1141 186.002 24.9227C186.066 24.7951 186.193 24.6674 186.257 24.5398C186.384 24.3484 186.448 24.0294 186.448 23.838V16.2449C186.448 16.0535 186.384 15.9897 186.257 16.1811C186.193 16.3087 186.066 16.4364 186.002 16.564C185.874 16.7554 185.747 17.0106 185.747 17.2658Z" fill="#858585"/>
</g>
<path opacity="0.15" d="M156.126 11.0765C156.126 12.2889 156.126 22.6256 156.126 23.0084C156.126 23.7103 156.253 24.4122 156.572 25.114C156.253 25.8797 156.126 26.6454 156.126 27.4111C156.126 28.0492 156.126 29.3253 156.126 29.7081C156.126 32.0052 157.655 34.366 160.712 36.0888C162.942 37.365 165.745 38.1945 168.675 38.5773V36.0888L170.522 34.9403V32.5156L171.159 32.069H170.522V20.0095C166.955 19.8181 163.452 18.9886 160.776 17.3934C157.655 15.6706 156.126 13.3736 156.126 11.0765Z" fill="#858585"/>
<path d="M196.257 153.94C182.689 161.788 160.776 161.788 147.208 153.94C140.455 150.048 137.079 144.879 137.079 139.775V201.859C137.079 206.964 140.455 212.132 147.208 216.024C160.776 223.872 182.689 223.872 196.257 216.024C203.01 212.132 206.386 206.964 206.386 201.859V139.775C206.45 144.879 203.01 150.048 196.257 153.94Z" fill="#0CAAED"/>
<path d="M206.449 182.398V180.292C204.921 181.76 203.455 183.291 202.054 184.823C200.27 186.801 198.359 188.779 196.385 190.565C188.677 197.392 180.013 199.626 169.949 197.329C162.687 195.67 156.253 189.417 150.902 183.546C149.755 182.334 148.672 181.058 147.653 179.782C144.341 175.89 141.219 172.253 137.143 169.7V171.487C140.646 173.912 143.513 177.23 146.507 180.739C147.59 181.951 148.672 183.291 149.819 184.504C155.297 190.565 161.986 197.073 169.694 198.796C172.369 199.371 174.917 199.69 177.402 199.69C184.791 199.69 191.352 197.01 197.468 191.65C199.506 189.799 201.417 187.758 203.264 185.78C204.22 184.695 205.303 183.546 206.449 182.398Z" fill="#FAFAFA"/>
<path d="M196.831 196.882C188.04 204.22 178.676 204.794 170.076 202.816C162.432 201.093 155.425 195.415 150.329 189.736C145.87 184.823 142.175 179.59 137.079 176.272V199.243C137.079 204.347 140.455 209.516 147.208 213.408C160.776 221.256 182.689 221.256 196.257 213.408C203.01 209.516 206.386 204.347 206.386 199.243V186.992C203.201 190.246 200.334 193.947 196.831 196.882Z" fill="#FAFAFA"/>
<path d="M167.458 183.78L165.154 181.668L164.526 181.871L165.366 184.459L164.034 184.891L161.88 178.251L164.372 177.443C164.886 177.276 165.353 177.226 165.774 177.293C166.193 177.353 166.542 177.51 166.82 177.763C167.103 178.008 167.306 178.32 167.43 178.701C167.572 179.138 167.573 179.576 167.435 180.013C167.294 180.444 166.995 180.808 166.538 181.103L168.999 183.28L167.458 183.78ZM164.202 180.873L165.315 180.512C165.677 180.394 165.918 180.221 166.04 179.992C166.16 179.757 166.17 179.484 166.069 179.174C165.97 178.869 165.806 178.663 165.574 178.556C165.341 178.443 165.044 178.444 164.683 178.562L163.57 178.923L164.202 180.873ZM172.495 182.24C171.988 182.405 171.496 182.442 171.018 182.352C170.538 182.255 170.114 182.039 169.745 181.703C169.383 181.364 169.115 180.926 168.94 180.387C168.765 179.848 168.728 179.334 168.829 178.846C168.936 178.356 169.16 177.933 169.5 177.577C169.838 177.215 170.261 176.952 170.768 176.787C171.276 176.622 171.772 176.587 172.259 176.682C172.743 176.77 173.169 176.982 173.537 177.318C173.912 177.652 174.187 178.089 174.362 178.628C174.537 179.167 174.567 179.683 174.454 180.175C174.346 180.665 174.121 181.093 173.776 181.457C173.436 181.812 173.009 182.073 172.495 182.24ZM172.119 181.08C172.36 181.001 172.567 180.871 172.739 180.689C172.915 180.499 173.029 180.266 173.08 179.99C173.13 179.714 173.101 179.408 172.992 179.072C172.829 178.571 172.572 178.231 172.219 178.051C171.871 177.863 171.506 177.83 171.126 177.954C170.745 178.077 170.469 178.317 170.298 178.674C170.13 179.023 170.128 179.448 170.291 179.949C170.453 180.45 170.702 180.796 171.038 180.989C171.378 181.173 171.738 181.203 172.119 181.08ZM178.238 180.377C177.807 180.517 177.395 180.566 177.003 180.525C176.609 180.478 176.268 180.354 175.978 180.153C175.695 179.951 175.492 179.691 175.368 179.374L176.709 178.939C176.8 179.133 176.953 179.269 177.168 179.347C177.388 179.423 177.629 179.418 177.889 179.334C178.142 179.252 178.323 179.137 178.429 178.99C178.542 178.842 178.573 178.688 178.521 178.529C178.466 178.358 178.336 178.26 178.132 178.235C177.932 178.202 177.625 178.196 177.211 178.218C176.787 178.251 176.432 178.257 176.146 178.238C175.865 178.217 175.599 178.132 175.348 177.982C175.102 177.83 174.922 177.577 174.807 177.222C174.712 176.93 174.708 176.637 174.795 176.343C174.888 176.046 175.067 175.778 175.332 175.537C175.604 175.295 175.952 175.105 176.377 174.967C177.005 174.763 177.558 174.759 178.035 174.955C178.509 175.144 178.852 175.499 179.063 176.02L177.789 176.433C177.702 176.23 177.559 176.094 177.362 176.025C177.169 175.947 176.942 175.951 176.682 176.035C176.441 176.113 176.268 176.219 176.164 176.351C176.066 176.48 176.043 176.625 176.094 176.783C176.152 176.961 176.285 177.068 176.493 177.106C176.699 177.137 177.005 177.139 177.41 177.113C177.821 177.085 178.167 177.081 178.447 177.102C178.728 177.124 178.991 177.213 179.239 177.371C179.491 177.521 179.676 177.769 179.796 178.116C179.895 178.42 179.898 178.721 179.805 179.017C179.718 179.312 179.539 179.58 179.267 179.822C178.999 180.056 178.656 180.241 178.238 180.377ZM185.383 174.926C185.445 175.116 185.488 175.291 185.512 175.452L181.66 176.702C181.815 177.072 182.045 177.327 182.349 177.466C182.654 177.606 182.977 177.62 183.32 177.509C183.814 177.348 184.097 177.022 184.169 176.529L185.605 176.063C185.618 176.619 185.462 177.133 185.137 177.602C184.811 178.066 184.334 178.399 183.706 178.603C183.199 178.767 182.706 178.805 182.229 178.714C181.755 178.616 181.337 178.397 180.975 178.059C180.62 177.719 180.354 177.279 180.179 176.74C180.002 176.195 179.958 175.68 180.046 175.196C180.134 174.712 180.342 174.294 180.67 173.942C180.997 173.591 181.421 173.331 181.941 173.162C182.442 172.999 182.924 172.962 183.387 173.05C183.857 173.136 184.264 173.344 184.609 173.674C184.959 173.995 185.217 174.412 185.383 174.926ZM183.881 174.993C183.763 174.652 183.551 174.42 183.244 174.295C182.935 174.164 182.607 174.155 182.258 174.268C181.928 174.375 181.682 174.567 181.52 174.844C181.361 175.113 181.315 175.433 181.379 175.804L183.881 174.993ZM187.443 172.681L188.27 175.23C188.328 175.407 188.411 175.524 188.52 175.58C188.634 175.627 188.792 175.618 188.995 175.552L189.613 175.351L189.977 176.474L189.14 176.745C188.018 177.109 187.28 176.746 186.926 175.655L186.102 173.116L185.474 173.319L185.119 172.225L185.747 172.022L185.324 170.719L186.665 170.284L187.088 171.587L188.267 171.204L188.622 172.298L187.443 172.681ZM191.131 171.484L191.958 174.033C192.015 174.211 192.099 174.327 192.208 174.383C192.321 174.43 192.48 174.421 192.682 174.355L193.301 174.155L193.665 175.277L192.828 175.549C191.705 175.913 190.967 175.55 190.613 174.459L189.789 171.919L189.162 172.123L188.807 171.029L189.435 170.825L189.012 169.522L190.353 169.087L190.776 170.39L191.955 170.008L192.31 171.101L191.131 171.484ZM198.629 170.628C198.691 170.818 198.734 170.994 198.758 171.154L194.906 172.404C195.061 172.774 195.291 173.029 195.595 173.168C195.9 173.308 196.223 173.322 196.566 173.211C197.06 173.05 197.343 172.724 197.415 172.231L198.851 171.765C198.864 172.322 198.708 172.835 198.383 173.305C198.057 173.768 197.58 174.101 196.952 174.305C196.445 174.47 195.952 174.507 195.475 174.417C195.001 174.318 194.583 174.1 194.221 173.761C193.866 173.421 193.6 172.982 193.425 172.443C193.248 171.897 193.204 171.383 193.292 170.898C193.381 170.414 193.588 169.996 193.916 169.645C194.243 169.293 194.667 169.033 195.187 168.864C195.688 168.702 196.17 168.665 196.633 168.753C197.103 168.839 197.51 169.046 197.855 169.376C198.205 169.697 198.463 170.114 198.629 170.628ZM197.127 170.695C197.009 170.355 196.797 170.122 196.49 169.997C196.182 169.866 195.853 169.857 195.504 169.971C195.174 170.077 194.928 170.269 194.766 170.546C194.607 170.815 194.561 171.135 194.625 171.507L197.127 170.695Z" fill="white"/>
<path opacity="0.1" d="M151.667 156.109C150.138 155.471 148.609 154.77 147.208 153.94C140.455 150.048 137.079 144.879 137.079 139.775V201.859C137.079 206.964 140.455 212.132 147.208 216.024C148.609 216.854 150.074 217.555 151.667 218.194V156.109Z" fill="black"/>
<path d="M250.918 77.0149C250.918 77.0149 253.084 80.0776 258.18 80.9709C262.257 81.7366 264.423 80.5881 264.423 80.1414C264.423 79.6948 262.894 78.7377 258.308 77.8444C256.46 77.4615 250.918 77.0149 250.918 77.0149Z" fill="#DAE2EA"/>
<path d="M243.529 73.2503C243.912 73.5055 247.797 74.9093 252.256 75.1645C254.613 75.2921 255.824 74.6541 255.696 74.1436C255.569 73.8246 254.04 72.9313 250.473 72.7399C246.842 72.5484 243.211 72.9951 243.529 73.2503Z" fill="#DAE2EA"/>
<path d="M247.606 75.6111C247.988 75.8025 249.007 76.8872 250.345 78.9929C251.237 80.3966 252.384 81.9918 252.001 82.4384C251.619 82.8213 249.708 81.8004 248.689 80.1414C247.606 78.4824 247.16 75.4197 247.606 75.6111Z" fill="#DAE2EA"/>
<path d="M240.79 71.5913C241.236 71.8466 242.637 74.4627 243.274 75.6112C243.911 76.8235 244.421 78.2911 244.039 78.9291C243.657 79.5034 242.192 78.4187 241.3 76.313C240.28 74.2074 240.344 71.3361 240.79 71.5913Z" fill="#DAE2EA"/>
<path d="M238.051 69.2305C238.242 69.6133 240.663 70.2514 243.02 70.6342C245.377 71.0171 248.243 70.9533 247.989 70.1238C247.734 69.2943 246.141 68.6562 243.593 68.5286C240.854 68.2734 237.86 68.8476 238.051 69.2305Z" fill="#DAE2EA"/>
<path d="M235.439 66.9973C235.694 67.0611 236.204 69.1029 236.841 71.2085C237.478 73.2503 237.796 74.1436 237.223 74.5265C236.713 74.9093 235.439 74.1436 234.93 71.7828C234.42 69.4219 235.185 66.8697 235.439 66.9973Z" fill="#DAE2EA"/>
<path d="M261.939 80.0776C258.754 79.6948 255.632 78.8653 252.639 77.8444C249.645 76.7597 246.651 75.4835 243.911 73.8884C241.109 72.2932 238.433 70.4428 236.204 68.0819C233.974 65.7211 232.19 62.9136 231.49 59.7232V59.6594H231.553C232.636 62.6583 234.484 65.3382 236.713 67.5077C238.943 69.7409 241.491 71.6551 244.166 73.3141C246.905 74.9731 249.772 76.313 252.766 77.4615C255.76 78.6101 258.818 79.5034 262.003 79.95C261.939 80.0138 261.939 80.0138 261.939 80.0776Z" fill="#DAE2EA"/>
<path d="M257.034 139.035C257.034 139.035 261.43 136.419 263.277 129.592C264.742 124.104 263.468 121.042 262.895 120.978C262.321 120.914 260.793 122.892 259.073 129.017C258.372 131.57 257.034 139.035 257.034 139.035Z" fill="#DAE2EA"/>
<path d="M251.11 148.606C251.492 148.16 253.849 142.991 254.677 136.993C255.123 133.803 254.423 132.08 253.722 132.208C253.34 132.335 251.875 134.313 251.174 139.163C250.537 144.076 250.728 149.053 251.11 148.606Z" fill="#DAE2EA"/>
<path d="M254.805 143.438C255.123 142.927 256.716 141.715 259.773 140.12C261.812 139.099 264.105 137.695 264.615 138.27C265.124 138.844 263.468 141.268 261.111 142.481C258.69 143.757 254.486 143.948 254.805 143.438Z" fill="#DAE2EA"/>
<path d="M248.562 152.243C248.944 151.669 252.639 150.074 254.359 149.372C256.079 148.67 258.181 148.16 258.945 148.734C259.71 149.308 257.99 151.222 255.06 152.179C252.002 153.136 248.116 152.817 248.562 152.243Z" fill="#DAE2EA"/>
<path d="M244.995 155.625C245.505 155.434 246.651 152.179 247.479 149.053C248.307 145.926 248.498 141.97 247.352 142.225C246.205 142.481 245.186 144.586 244.676 147.968C244.039 151.733 244.485 155.816 244.995 155.625Z" fill="#DAE2EA"/>
<path d="M241.682 158.943C241.81 158.624 244.676 158.177 247.543 157.539C250.409 156.901 251.62 156.582 252.129 157.348C252.575 158.113 251.428 159.772 248.18 160.155C244.931 160.538 241.555 159.262 241.682 158.943Z" fill="#DAE2EA"/>
<path d="M262.513 124.423C261.621 128.698 260.156 132.846 258.436 136.866C256.652 140.886 254.55 144.714 252.066 148.287C249.581 151.86 246.778 155.306 243.275 158.113C239.835 160.857 235.758 163.027 231.426 163.601C231.426 163.601 231.363 163.601 231.363 163.537C231.363 163.537 231.363 163.473 231.426 163.473C235.631 162.389 239.453 160.155 242.702 157.348C246.014 154.54 248.881 151.35 251.429 147.841C253.977 144.331 256.143 140.567 257.99 136.611C259.837 132.718 261.43 128.635 262.449 124.36C262.449 124.423 262.449 124.36 262.513 124.423Z" fill="#DAE2EA"/>
<path d="M45.8015 97.3055C45.8015 97.3055 44.1453 100.687 45.8015 105.6C47.0756 109.556 49.114 110.96 49.4962 110.705C49.8784 110.514 50.0058 108.663 48.6044 104.26C48.0311 102.41 45.8015 97.3055 45.8015 97.3055Z" fill="#DAE2EA"/>
<path d="M45.6102 89.0744C45.5465 89.521 46.1836 93.6046 48.0946 97.6245C49.1138 99.7301 50.2604 100.56 50.5789 100.177C50.77 99.9215 50.8974 98.1349 49.3049 94.8808C47.8398 91.6266 45.6739 88.6277 45.6102 89.0744Z" fill="#DAE2EA"/>
<path d="M45.4827 93.7323C45.5464 94.179 45.0368 95.5827 43.7628 97.7522C42.9347 99.2197 42.0429 101.006 41.5332 100.815C41.0236 100.687 41.0236 98.5178 41.9792 96.7951C42.9347 95.0723 45.419 93.2857 45.4827 93.7323Z" fill="#DAE2EA"/>
<path d="M45.7376 85.8203C45.7376 86.3308 44.0814 88.8192 43.3807 89.9039C42.6163 91.0525 41.5334 92.201 40.8327 92.1372C40.1319 92.0734 40.3867 90.223 41.8519 88.4364C43.2533 86.6498 45.8013 85.3099 45.7376 85.8203Z" fill="#DAE2EA"/>
<path d="M46.5659 82.3109C46.311 82.6299 46.9481 85.0545 47.7125 87.3516C48.4769 89.5848 49.942 92.0733 50.5153 91.499C51.0886 90.861 50.8975 89.1382 49.8783 86.9049C48.7317 84.2889 46.8207 81.9918 46.5659 82.3109Z" fill="#DAE2EA"/>
<path d="M47.2665 78.9291C47.3302 79.1843 45.7376 80.5881 44.2088 82.1833C42.7437 83.7146 42.043 84.4165 41.4697 84.0975C40.8963 83.7784 40.8963 82.3109 42.7437 80.7795C44.6547 79.1843 47.2028 78.6739 47.2665 78.9291Z" fill="#DAE2EA"/>
<path d="M48.3495 108.472C47.1391 105.473 46.3747 102.346 45.8651 99.2197C45.3555 96.0294 45.1007 92.839 45.1644 89.5849C45.2281 86.3945 45.6103 83.1404 46.6295 80.0138C47.6487 76.9511 49.2413 74.016 51.7256 71.8466H51.7893V71.9104C49.6235 74.2712 48.2221 77.2063 47.3302 80.2053C46.4384 83.2042 45.9288 86.3945 45.8014 89.5849C45.674 92.7752 45.8014 95.9656 46.2473 99.0921C46.6932 102.219 47.3302 105.409 48.4132 108.408C48.4132 108.472 48.4132 108.472 48.3495 108.472Z" fill="#DAE2EA"/>
<path d="M236.713 122.764C236.204 115.682 233.656 114.087 231.999 111.534C229.897 108.28 229.897 105.856 229.897 105.856C229.133 107.897 228.623 113.512 231.362 116.767C233.656 119.446 235.821 119.957 236.713 122.764Z" fill="#DAE2EA"/>
<path d="M241.045 113.066C245.313 111.981 248.434 109.11 249.453 104.899C250.473 100.687 252.575 98.5178 252.575 98.5178C243.466 101.963 241.109 109.939 241.045 113.066Z" fill="#DAE2EA"/>
<path d="M68.1604 32.9882C70.581 26.2885 68.8611 23.8 68.4152 20.8011C67.7782 16.9727 68.7974 14.8032 68.7974 14.8032C67.2685 16.3346 64.5294 21.3115 65.7397 25.3952C66.6952 28.7769 68.4152 30.1169 68.1604 32.9882Z" fill="#DAE2EA"/>
<path d="M75.9956 25.9694C80.391 26.6713 84.4042 25.3313 86.9522 21.9495C89.5639 18.504 92.3668 17.4193 92.3668 17.4193C82.6842 16.7174 77.3333 23.0981 75.9956 25.9694Z" fill="#DAE2EA"/>
<path d="M250.536 51.875C249.645 49.1313 248.052 46.7066 246.332 44.4734C244.039 41.4745 241.682 38.5393 239.198 35.668C238.943 35.4128 238.688 35.0938 238.433 34.8385C238.688 34.3281 238.752 32.4777 238.752 32.2225C238.752 31.5844 238.624 30.9463 238.37 30.3721C237.605 28.4579 235.184 26.8627 235.121 24.7571C235.121 24.6294 234.93 24.438 234.866 24.6294C234.293 26.6713 234.356 29.4788 235.376 31.5844C234.102 30.3083 232.764 29.0959 231.426 27.9474C230.662 27.3093 229.897 26.6713 229.133 26.0332C229.005 24.2466 229.324 22.46 228.751 20.7372C228.305 19.3335 227.222 18.3764 226.139 17.4831C226.012 17.4193 225.884 17.4831 225.948 17.6107C226.203 18.7592 226.33 19.7801 226.266 20.9286C226.266 21.6305 226.203 22.2686 226.33 22.9705C226.394 23.3533 226.585 23.8 226.776 24.1828C226.266 23.8 225.693 23.4171 225.12 23.0981C224.164 22.0772 223.655 20.9925 222.572 20.0353C222.253 19.7801 221.935 19.5249 221.616 19.2697C221.298 19.0144 220.979 18.8868 220.597 18.6954C219.832 18.2488 218.877 17.9297 217.985 17.6745C216.52 17.2278 214.928 16.9088 213.399 16.9088C213.144 16.9088 213.335 17.2278 213.462 17.2917C213.59 17.3555 213.717 17.4193 213.845 17.4831C214.8 17.9297 215.692 18.504 216.456 19.1421C216.775 19.3973 217.157 19.6525 217.348 20.0353C217.476 20.163 217.539 20.2906 217.667 20.4182C217.794 20.5458 217.985 20.6734 218.113 20.8648C218.304 21.0563 218.495 21.1839 218.686 21.3753C218.813 21.5029 219.004 21.6305 219.132 21.7581C219.195 21.8219 219.323 21.8857 219.387 21.9496C219.259 22.0134 219.132 22.0134 219.004 22.0134C218.813 22.0134 218.686 22.0134 218.495 22.0134C217.921 22.0134 217.348 22.141 216.775 22.141C216.138 22.141 215.501 22.141 214.864 22.2048C214.609 22.2048 214.163 22.3962 214.545 22.6514C214.864 22.8429 215.246 23.0343 215.628 23.1619C215.819 23.2895 216.074 23.3533 216.329 23.4809C216.711 23.6085 217.03 23.8 217.348 23.9276C218.367 24.3742 219.578 24.6933 220.661 24.8209C221.17 24.8847 221.744 24.9485 222.253 24.9485C223.463 24.9485 224.738 24.8847 225.948 24.9485C226.33 25.0123 226.712 25.0761 227.094 25.1399C227.731 25.6504 228.368 26.1608 228.942 26.6713C228.942 26.6713 228.942 26.7351 229.005 26.7351C229.005 26.7989 229.069 26.7989 229.133 26.7989C229.77 27.3093 230.407 27.8198 231.044 28.394C233.465 30.4997 235.694 32.7967 237.796 35.2214C237.478 35.0938 237.223 35.03 236.904 34.9023C236.076 34.5833 235.248 34.2005 234.547 33.69C231.554 30.3083 227.668 28.9683 223.145 28.9683C222.954 28.9683 223.018 29.2235 223.145 29.3512C225.183 30.7549 227.222 32.3501 229.451 33.4348C227.859 33.0519 226.266 32.7967 224.674 32.5415C223.909 32.4139 223.209 32.2225 222.444 32.2225C222.381 32.1587 222.126 32.0948 222.062 32.031C221.935 31.9672 221.807 31.9034 221.616 31.8396C221.043 31.5206 220.406 31.2016 219.833 30.8825C219.45 30.6911 219.132 30.4997 218.75 30.3083C218.495 30.1806 218.24 30.053 217.921 29.9254C217.412 29.734 216.902 29.6064 216.393 29.5426C215.819 29.4788 215.182 29.4788 214.609 29.4788C213.717 29.4788 212.825 29.6064 211.934 29.6064C211.424 29.6702 210.914 29.6064 210.468 29.734C210.214 29.7978 210.023 29.7978 209.768 29.8616C209.577 29.9254 209.386 29.9892 209.194 30.053C209.067 30.053 209.067 30.1806 209.131 30.2444C209.131 30.4359 209.449 30.4997 209.577 30.5635C209.895 30.6911 210.15 30.8825 210.405 31.0101C210.723 31.2015 210.978 31.393 211.233 31.5206C211.997 31.9672 212.762 32.3501 213.59 32.6691C214.354 32.9243 215.119 33.0519 215.883 33.1158C216.711 33.1796 217.603 33.1796 218.431 33.1158C219.259 33.0519 220.087 32.8605 220.915 32.6691C224.228 32.2225 227.54 33.7538 230.853 34.0091C232.127 34.5195 233.656 34.8385 234.739 34.0729C235.248 34.4557 235.885 34.7747 236.459 35.03C237.032 35.2852 237.733 35.6042 238.37 35.7956C240.535 38.2841 242.638 40.7726 244.612 43.3887C245.249 44.2181 245.886 45.0476 246.523 45.9409C245.886 45.6219 245.249 45.3667 244.612 45.1114C243.848 43.7077 242.829 42.5592 241.363 41.7935C240.726 41.4745 239.962 41.1554 239.261 40.9002C238.051 40.4535 236.65 40.3897 235.503 39.7517C235.312 39.6241 235.248 39.8793 235.312 40.0069C238.115 43.7715 242.829 44.4096 246.778 46.3876C247.988 48.1104 249.008 49.897 249.645 51.9388C249.899 52.3216 250.664 52.2578 250.536 51.875ZM216.52 18.6954C215.947 18.185 215.246 17.8021 214.545 17.4193C215.373 17.5469 216.202 17.6745 217.03 17.8659C217.921 18.0573 218.75 18.2488 219.578 18.5678C219.896 18.6954 220.215 18.823 220.533 18.9506C220.724 19.0782 220.915 19.2059 221.17 19.2697C221.425 19.3973 221.68 19.5887 221.871 19.7801C222.126 19.9715 222.317 20.2268 222.572 20.482C222.826 20.7372 223.081 20.9925 223.272 21.3115C223.718 21.8857 224.164 22.46 224.674 22.9705C224.546 22.8429 224.228 22.7152 224.037 22.6514C223.782 22.5876 223.591 22.5238 223.336 22.46C223.145 22.3962 222.89 22.3324 222.699 22.2686C222.508 22.2048 222.317 22.2048 222.126 22.2048C221.744 22.141 221.361 22.0772 221.043 22.0134C220.597 21.8857 220.087 21.7581 219.705 21.5029C219.004 21.1201 218.495 20.6096 217.985 20.0353C217.412 19.5887 217.03 19.0782 216.52 18.6954ZM219.896 24.119C219.833 24.119 219.769 24.119 219.705 24.119C219.45 24.0552 219.259 24.0552 219.004 23.9914C218.558 23.8638 218.113 23.8 217.667 23.6085C217.476 23.5447 217.284 23.4171 217.093 23.3533C216.584 23.1619 216.074 23.0343 215.628 22.779C215.565 22.7152 215.182 22.5876 215.31 22.5238C215.373 22.46 215.756 22.46 215.819 22.46C216.52 22.46 217.221 22.3962 217.921 22.3962C218.304 22.3962 218.686 22.3962 219.068 22.3962C220.087 22.46 221.107 22.3962 222.126 22.5876C222.508 22.6514 222.826 22.7152 223.209 22.8429C223.4 22.9067 223.591 22.9705 223.782 23.0343C224.801 23.4171 225.693 23.9914 226.521 24.6294C226.33 24.5018 225.948 24.5018 225.693 24.438C225.374 24.3742 225.12 24.3742 224.865 24.3742C224.355 24.3742 223.846 24.3742 223.336 24.3742C222.253 24.3104 221.234 24.3104 220.151 24.119C220.087 24.119 219.96 24.119 219.896 24.119ZM227.349 24.6294C226.585 23.5447 226.521 22.141 226.585 20.801C226.585 20.2906 226.649 19.7163 226.585 19.2059C226.521 18.504 225.948 17.9297 226.84 18.4402C228.368 19.3335 228.687 21.8219 228.687 23.4171C228.687 24.2466 228.56 24.9485 228.687 25.6504C228.241 25.3313 227.795 25.0123 227.349 24.6294ZM220.915 32.3501C220.661 32.4139 220.406 32.4777 220.151 32.5415C219.323 32.7329 218.431 32.7967 217.539 32.7967C216.647 32.7967 215.819 32.7329 214.928 32.4777C213.781 32.1587 212.634 31.7758 211.615 31.2016C211.488 31.1377 210.086 30.4997 210.277 30.2444C210.405 30.053 210.978 30.053 211.169 30.053C213.335 29.7978 215.628 29.5426 217.73 30.3083C218.304 30.4997 218.941 30.7549 219.514 31.0739C219.833 31.2654 220.151 31.4568 220.533 31.6482C220.724 31.712 220.852 31.8396 221.043 31.9034C221.107 31.9672 221.234 31.9672 221.298 32.031C221.361 32.031 221.489 32.1587 221.552 32.1587C221.361 32.2225 221.107 32.2863 220.915 32.3501ZM231.299 33.8176C231.171 33.7538 230.98 33.7538 230.853 33.69C228.305 32.7967 225.757 30.6911 223.782 29.2873C225.757 29.2873 227.604 29.6064 229.451 30.3083C231.49 31.1377 232.764 32.4777 234.356 33.8814C233.401 34.2005 232.382 34.1367 231.299 33.8176ZM238.051 34.3919C237.478 33.7538 236.904 33.1158 236.267 32.5415C235.439 31.0739 234.993 29.734 234.866 27.9474C234.866 27.6284 234.993 25.9056 234.866 25.3313C234.993 25.6504 235.248 26.416 235.248 26.416C235.694 27.2455 236.395 27.8836 236.904 28.6493C237.669 29.734 238.178 30.9463 238.178 32.2863C238.306 33.0519 238.115 33.7538 238.051 34.3919ZM236.14 40.3897C236.65 40.5812 237.159 40.645 237.669 40.7726C238.752 41.0278 239.835 41.4106 240.854 41.9211C242.383 42.623 243.275 43.7077 244.23 44.92C241.3 43.7715 238.242 42.8144 236.14 40.3897Z" fill="#DAE2EA"/>
<path d="M74.2754 169.918C72.237 169.343 70.4534 168.322 68.7334 167.11C66.695 163.154 65.9943 158.432 62.1722 155.689C62.0448 155.561 61.79 155.625 61.9174 155.88C62.5544 156.965 62.6181 158.432 63.064 159.581C63.3188 160.283 63.6374 160.985 63.9559 161.623C64.7203 163.027 65.9306 164.047 67.332 164.813C67.5868 165.451 67.9053 166.089 68.2238 166.727C67.332 166.089 66.5039 165.515 65.6758 164.877C63.064 162.899 60.4523 160.857 57.968 158.688C57.7768 158.05 57.4583 157.412 57.2035 156.837C56.9487 156.263 56.6302 155.625 56.248 155.114C57.0124 153.966 56.6302 152.498 56.1206 151.222C55.8021 147.904 54.2096 144.65 54.6555 141.268C54.8466 140.439 55.0377 139.609 55.1014 138.78C55.1651 137.95 55.1651 137.057 55.0377 136.228C54.974 135.398 54.7829 134.696 54.5281 133.931C54.2733 133.101 53.8274 132.272 53.3815 131.57C53.1904 131.251 52.9993 130.995 52.8082 130.74C52.6171 130.485 52.4259 130.23 52.3622 129.911C52.2985 129.719 52.2348 129.4 52.0437 129.464C51.98 129.464 51.8526 129.464 51.8526 129.528C51.7889 129.719 51.7252 129.911 51.6615 130.102C51.5978 130.357 51.5978 130.549 51.5978 130.804C51.4704 131.251 51.5341 131.761 51.4704 132.272C51.4067 133.165 51.343 134.058 51.343 134.952C51.343 135.526 51.343 136.164 51.4067 136.738C51.4704 137.312 51.5978 137.759 51.7889 138.269C51.9163 138.525 52.0437 138.78 52.1711 139.099C52.3623 139.482 52.5534 139.801 52.7445 140.184C53.063 140.758 53.4452 141.332 53.7 141.97C53.7637 142.098 53.8274 142.225 53.8911 142.417C53.9548 142.545 53.9548 142.736 54.0822 142.8C54.0822 143.565 54.2733 144.267 54.4007 145.033C54.7192 146.628 54.974 148.223 55.3562 149.819C54.2096 147.585 52.6171 145.607 51.1519 143.565C51.0882 143.438 50.7697 143.374 50.7697 143.565C50.7697 148.096 52.2348 151.924 55.611 154.923C56.1206 155.625 56.5665 156.454 56.885 157.284C57.0124 157.539 57.0761 157.858 57.2035 158.177C54.7829 156.072 52.426 153.902 50.2601 151.477C49.6868 150.839 49.1772 150.201 48.6039 149.563C48.6039 149.499 48.6039 149.436 48.5402 149.436C48.4765 149.436 48.4765 149.436 48.4765 149.372C47.9669 148.734 47.4573 148.16 46.9477 147.521C46.8839 147.139 46.8203 146.756 46.7565 146.373C46.6291 145.161 46.6929 143.948 46.6929 142.672C46.6929 142.162 46.6291 141.587 46.5654 141.077C46.438 139.992 46.0558 138.78 45.6099 137.759C45.4825 137.44 45.2914 137.057 45.1003 136.738C44.9729 136.547 44.9092 136.291 44.7818 136.036C44.6544 135.717 44.4633 135.271 44.2722 135.015C44.0174 134.696 43.89 135.079 43.89 135.334C43.8263 135.972 43.89 136.61 43.89 137.249C43.89 137.823 43.8263 138.397 43.8263 138.971C43.8263 139.163 43.8263 139.29 43.8263 139.482C43.8263 139.609 43.8263 139.737 43.7626 139.865C43.6989 139.865 43.6352 139.673 43.5715 139.609C43.4441 139.482 43.3167 139.29 43.1893 139.163C43.0619 138.971 42.8708 138.78 42.6797 138.588C42.4886 138.461 42.3612 138.269 42.2338 138.142C42.1064 138.014 41.979 137.95 41.8516 137.823C41.5331 137.568 41.2146 137.185 40.9597 136.93C40.259 136.164 39.6857 135.271 39.2398 134.313C39.1761 134.186 39.1124 134.058 39.0487 133.931C38.985 133.803 38.6665 133.612 38.6665 133.867C38.7302 135.462 39.0487 136.993 39.4946 138.461C39.7494 139.354 40.0679 140.247 40.5138 141.013C40.7049 141.332 40.896 141.651 41.1508 141.97C41.4057 142.289 41.6605 142.608 41.9153 142.927C42.8708 143.948 44.0174 144.459 45.0366 145.416C45.4188 145.99 45.7373 146.501 46.1195 147.075C45.7373 146.883 45.2914 146.692 44.9092 146.628C44.2085 146.501 43.5715 146.564 42.8708 146.564C41.7242 146.628 40.6412 146.501 39.5583 146.309C39.4309 146.309 39.3672 146.437 39.4309 146.501C40.3227 147.585 41.342 148.67 42.6797 149.117C44.4633 149.691 46.1832 149.308 47.9669 149.372C48.6039 150.138 49.3046 150.903 49.9416 151.669C51.0882 153.009 52.2985 154.349 53.5726 155.561C51.4704 154.604 48.6039 154.604 46.6291 155.178C46.438 155.242 46.6291 155.434 46.7565 155.434C48.8587 155.434 50.4512 157.858 52.3622 158.624C52.9356 158.879 53.5726 158.943 54.2096 159.007C54.4644 159.007 56.3117 158.879 56.8213 158.624C57.0761 158.879 57.3946 159.134 57.6494 159.39C60.516 161.878 63.51 164.175 66.5039 166.408C68.7971 168.131 71.2178 169.662 73.9569 170.492C74.5939 170.811 74.6576 170.045 74.2754 169.918ZM41.979 138.461C42.5523 138.971 43.1256 139.482 43.5078 140.184C43.7626 140.63 43.89 141.077 44.0174 141.524C44.1448 141.906 44.2085 142.225 44.2722 142.608C44.2722 142.8 44.3359 142.991 44.3359 143.183C44.3996 143.374 44.4633 143.629 44.527 143.821C44.5907 144.076 44.5907 144.267 44.7181 144.523C44.7818 144.714 44.9092 145.033 45.0366 145.161C44.527 144.65 43.9537 144.267 43.3804 143.821C43.1256 143.629 42.8071 143.374 42.5523 143.119C42.2975 142.864 42.0427 142.672 41.8516 142.417C41.6605 142.162 41.4694 141.97 41.342 141.715C41.2146 141.524 41.0871 141.332 41.0234 141.141C40.8323 140.822 40.7049 140.503 40.5775 140.184C40.259 139.354 40.0679 138.525 39.8768 137.631C39.6857 136.802 39.4946 135.972 39.3672 135.143C39.7494 135.845 40.1316 136.483 40.6412 137.121C41.0234 137.568 41.4694 138.014 41.979 138.461ZM46.0558 140.694C46.2469 141.715 46.3106 142.8 46.3743 143.884C46.438 144.395 46.3743 144.905 46.438 145.416C46.438 145.671 46.5017 145.99 46.5017 146.245C46.5017 146.437 46.5654 146.883 46.6929 147.011C45.9921 146.182 45.4188 145.224 45.0366 144.267C44.9729 144.076 44.9092 143.884 44.8455 143.693C44.7181 143.31 44.6544 142.991 44.5907 142.608C44.3996 141.587 44.3996 140.567 44.3359 139.546C44.3359 139.163 44.2722 138.78 44.2722 138.397C44.2722 137.695 44.2722 136.993 44.2722 136.291C44.2722 136.228 44.2085 135.845 44.2722 135.781C44.3996 135.653 44.527 136.036 44.527 136.1C44.7818 136.547 44.9092 137.121 45.1003 137.568C45.164 137.759 45.2914 137.95 45.3551 138.142C45.5462 138.588 45.6099 139.035 45.7373 139.482C45.801 139.673 45.8647 139.928 45.8647 140.184C45.8647 140.247 45.8647 140.311 45.9284 140.375C46.0558 140.503 46.0558 140.567 46.0558 140.694ZM47.7758 149.18C47.0751 149.053 46.3743 149.18 45.5462 149.18C43.9537 149.18 41.4694 148.925 40.5775 147.394C40.0679 146.501 40.6412 147.075 41.342 147.139C41.8516 147.202 42.4249 147.139 42.9345 147.139C44.2722 147.075 45.6736 147.075 46.7565 147.84C47.0114 148.287 47.3936 148.734 47.7758 149.18ZM54.1459 141.97C54.1459 141.906 54.0822 141.779 54.0185 141.715C53.9548 141.651 53.9548 141.524 53.8911 141.46C53.8274 141.268 53.7 141.141 53.6363 140.949C53.4452 140.63 53.2541 140.311 53.063 139.992C52.7445 139.418 52.4897 138.844 52.2348 138.269C51.4067 136.164 51.6615 133.867 51.8526 131.697C51.8526 131.506 51.9163 130.932 52.0437 130.804C52.2985 130.613 52.9356 131.953 52.9993 132.08C53.6363 133.101 53.9548 134.25 54.337 135.334C54.5918 136.164 54.6555 137.057 54.6555 137.95C54.6555 138.844 54.5918 139.737 54.4007 140.567C54.337 140.886 54.2733 141.077 54.2096 141.332C54.2096 141.524 54.1459 141.779 54.1459 141.97ZM56.0569 154.859C54.6555 153.264 53.2541 152.052 52.426 150.01C51.6615 148.16 51.4067 146.309 51.343 144.331C52.8082 146.309 54.9103 148.798 55.8021 151.35C55.8658 151.477 55.8658 151.605 55.9295 151.733C56.248 152.754 56.3117 153.838 56.0569 154.859ZM54.5281 158.751C53.1904 158.751 51.98 158.241 50.8971 157.539C50.1327 157.029 49.432 156.391 48.6039 155.88C48.6039 155.88 47.8395 155.625 47.521 155.497C48.0943 155.561 49.8142 155.434 50.1327 155.434C51.9163 155.497 53.3178 155.944 54.7829 156.773C55.4199 157.348 56.0569 157.922 56.6939 158.496C55.9295 158.56 55.2288 158.751 54.5281 158.751ZM67.1409 164.494C65.8669 163.537 64.784 162.644 64.0833 161.112C63.5737 160.091 63.1914 159.07 62.9366 157.986C62.8092 157.475 62.6818 156.965 62.5544 156.454C64.9751 158.56 65.9943 161.559 67.1409 164.494Z" fill="#DAE2EA"/>
</g>
<defs>
<filter id="filter0_d_1173_3678" x="-8" y="117.476" width="310.937" height="186.556" filterUnits="userSpaceOnUse" color-interpolation-filters="sRGB">
<feFlood flood-opacity="0" result="BackgroundImageFix"/>
<feColorMatrix in="SourceAlpha" type="matrix" values="0 0 0 0 0 0 0 0 0 0 0 0 0 0 0 0 0 0 127 0" result="hardAlpha"/>
<feOffset/>
<feGaussianBlur stdDeviation="4"/>
<feComposite in2="hardAlpha" operator="out"/>
<feColorMatrix type="matrix" values="0 0 0 0 0 0 0 0 0 0 0 0 0 0 0 0 0 0 0.5 0"/>
<feBlend mode="normal" in2="BackgroundImageFix" result="effect1_dropShadow_1173_3678"/>
<feBlend mode="normal" in="SourceGraphic" in2="effect1_dropShadow_1173_3678" result="shape"/>
</filter>
<clipPath id="clip0_1173_3678">
<rect width="295" height="296" fill="white"/>
</clipPath>
</defs>
</svg>
